<svg width="35" height="36" viewBox="0 0 35 36" fill="none" xmlns="http://www.w3.org/2000/svg">
<path d="M12.5284 35.8994C12.582 35.9529 12.6533 35.9842 12.7292 35.9842V35.9886C12.7292 35.9886 24.1337 36.0109 24.1872 35.9931C24.2808 35.9619 24.3522 35.886 24.3745 35.7924C24.4013 35.6943 24.37 35.5961 24.3031 35.5248L13.7996 24.9276C14.0716 24.8606 14.308 24.8027 14.5489 24.7581C16.8771 24.3031 18.9109 23.2595 20.5968 21.6583C24.4369 18.0055 25.61 12.689 23.6564 7.78735C21.7564 3.01949 17.1982 0.0446011 11.7524 0.0178404L0.280987 0C0.124883 0 0 0.124883 0 0.280987V7.90777C0 8.06388 0.124883 8.18876 0.280987 8.18876H9.40637C10.2315 8.19322 11.0522 8.20214 11.8773 8.21552C14.4731 8.26012 16.3731 10.062 16.3909 12.5061C16.4087 14.9235 14.5177 16.7343 11.904 16.8057H7.73383C7.64909 16.8057 7.56435 16.8458 7.51083 16.9172L1.67254 24.5707C1.63686 24.6198 1.61456 24.6822 1.61456 24.7447C1.61456 24.816 1.64132 24.8874 1.69484 24.9409L12.5284 35.8994Z" fill="#777777"/>
<path d="M29.3787 35.8905C29.401 35.9128 29.4323 35.9262 29.4635 35.9262V35.9351C29.4635 35.9351 34.3785 35.944 34.4008 35.9351C34.441 35.9262 34.4722 35.8905 34.4811 35.8504C34.49 35.8058 34.4811 35.7656 34.4499 35.7344L29.9229 31.1672C29.9534 31.1602 29.983 31.1532 30.0119 31.1463C30.0928 31.127 30.1684 31.109 30.244 31.0959C31.252 30.8996 32.1262 30.4492 32.8532 29.7579C34.5079 28.179 35.0163 25.8909 34.1734 23.7768C33.3572 21.7207 31.3903 20.4362 29.0442 20.4273L24.1024 20.4184C24.0355 20.4184 23.982 20.4719 23.982 20.5388V23.8259C23.982 23.8928 24.0355 23.9463 24.1024 23.9463H28.0363C28.3886 23.9463 28.7366 23.9507 29.0888 23.9551L29.1022 23.9552C30.2217 23.9731 31.0379 24.7536 31.0468 25.8062C31.0513 26.8454 30.2395 27.6259 29.1111 27.6571H27.3137C27.2736 27.6571 27.2379 27.675 27.2156 27.7062L24.7001 31.0067C24.6822 31.029 24.6733 31.0557 24.6733 31.0825C24.6733 31.1137 24.6867 31.1449 24.709 31.1672L29.3787 35.8905Z" fill="#777777"/>
</svg>
